<?xml version="1.0" encoding="UTF-8" standalone="no"?>
<svg
   xmlns:dc="http://purl.org/dc/elements/1.1/"
   xmlns:cc="http://creativecommons.org/ns#"
   xmlns:rdf="http://www.w3.org/1999/02/22-rdf-syntax-ns#"
   xmlns:svg="http://www.w3.org/2000/svg"
   xmlns="http://www.w3.org/2000/svg"
   xmlns:sodipodi="http://sodipodi.sourceforge.net/DTD/sodipodi-0.dtd"
   xmlns:inkscape="http://www.inkscape.org/namespaces/inkscape"
   viewBox="0 0 160 126.66667"
   height="126.66667"
   width="160"
   xml:space="preserve"
   version="1.1"
   id="svg2"
   sodipodi:docname="medium-pink.svg"
   inkscape:version="0.92.2 2405546, 2018-03-11"><sodipodi:namedview
     pagecolor="#ffffff"
     bordercolor="#666666"
     borderopacity="1"
     objecttolerance="10"
     gridtolerance="10"
     guidetolerance="10"
     inkscape:pageopacity="0"
     inkscape:pageshadow="2"
     inkscape:window-width="1920"
     inkscape:window-height="1054"
     id="namedview8"
     showgrid="false"
     inkscape:zoom="1.8631578"
     inkscape:cx="80"
     inkscape:cy="63.333336"
     inkscape:window-x="1366"
     inkscape:window-y="0"
     inkscape:window-maximized="1"
     inkscape:current-layer="svg2" /><metadata
     id="metadata8"><rdf:RDF><cc:Work
         rdf:about=""><dc:format>image/svg+xml</dc:format><dc:type
           rdf:resource="http://purl.org/dc/dcmitype/StillImage" /><dc:title></dc:title></cc:Work></rdf:RDF></metadata><defs
     id="defs6" /><g
     transform="matrix(1.3333333,0,0,-1.3333333,0,126.66667)"
     id="g10"
     style="fill:#edbcb2;fill-opacity:1"><g
       transform="scale(0.1)"
       id="g12"
       style="fill:#edbcb2;fill-opacity:1"><path
         id="path14"
         style="fill:#edbcb2;fill-opacity:1;fill-rule:nonzero;stroke:none"
         d="m 1200,810 -47.46,0 C 1134.92,810 1110,784.582 1110,768.309 l 0,-589.809 c 0,-16.293 24.92,-38.5 42.54,-38.5 l 47.46,0 0,-140 -430,0 0,140 90,0 0,620 -4.41,0 L 645.422,0 482.707,0 275.25,760 270,760 270,140 360,140 360,0 0,0 0,140 46.0977,140 C 65.082,140 90,162.207 90,178.5 l 0,589.809 C 90,784.582 65.082,810 46.0977,810 L 0,810 l 0,140 450.164,0 147.797,-550 4.066,0 149.164,550 448.809,0 0,-140" /></g></g></svg>