<?xml version="1.0" encoding="UTF-8" standalone="no"?>
<!-- Generator: Adobe Illustrator 16.0.0, SVG Export Plug-In . SVG Version: 6.00 Build 0)  -->

<svg
   xmlns:dc="http://purl.org/dc/elements/1.1/"
   xmlns:cc="http://creativecommons.org/ns#"
   xmlns:rdf="http://www.w3.org/1999/02/22-rdf-syntax-ns#"
   xmlns:svg="http://www.w3.org/2000/svg"
   xmlns="http://www.w3.org/2000/svg"
   xmlns:sodipodi="http://sodipodi.sourceforge.net/DTD/sodipodi-0.dtd"
   xmlns:inkscape="http://www.inkscape.org/namespaces/inkscape"
   version="1.1"
   id="Capa_1"
   x="0px"
   y="0px"
   width="430.12308"
   height="330.923"
   viewBox="0 0 430.12309 330.92301"
   xml:space="preserve"
   sodipodi:docname="behance.svg"
   inkscape:version="0.92.2 2405546, 2018-03-11"><metadata
   id="metadata40"><rdf:RDF><cc:Work
       rdf:about=""><dc:format>image/svg+xml</dc:format><dc:type
         rdf:resource="http://purl.org/dc/dcmitype/StillImage" /><dc:title></dc:title></cc:Work></rdf:RDF></metadata><defs
   id="defs38" /><sodipodi:namedview
   pagecolor="#ffffff"
   bordercolor="#666666"
   borderopacity="1"
   objecttolerance="10"
   gridtolerance="10"
   guidetolerance="10"
   inkscape:pageopacity="0"
   inkscape:pageshadow="2"
   inkscape:window-width="1366"
   inkscape:window-height="721"
   id="namedview36"
   showgrid="false"
   inkscape:zoom="0.54868028"
   inkscape:cx="609.18009"
   inkscape:cy="60.913335"
   inkscape:window-x="0"
   inkscape:window-y="21"
   inkscape:window-maximized="1"
   inkscape:current-layer="g3" />
<g
   id="g3"
   transform="matrix(1,0,0,1.2860192,0,-117.73952)">
	<path
   id="Behance"
   d="M 388.432,127.96812 H 280.659 v -25.73924 h 107.782 v 25.73924 z m -179.52,105.547 c 6.954,10.35642 10.429,22.93086 10.429,37.69352 0,15.26669 -3.918,28.96219 -11.889,41.05971 -5.071,8.00503 -11.367,14.76736 -18.932,20.21145 -8.52,6.29577 -18.607,10.61312 -30.203,12.91922 -11.633,2.3107 -24.224,3.47798 -37.787,3.47798 H 0 V 91.55347 h 129.25 c 32.579,0.50958 55.676,9.58512 69.315,27.40824 8.184,10.93112 12.239,24.04776 12.239,39.29409 0,15.7322 -4.104,28.32004 -12.368,37.88372 -4.597,5.36179 -11.388,10.23954 -20.378,14.64231 13.617,4.79316 23.949,12.34074 30.854,22.73329 z M 61.722,193.00309 h 56.632 c 11.638,0 21.046,-2.12628 28.292,-6.37871 7.241,-4.24471 10.854,-11.79058 10.854,-22.62451 0,-11.96986 -4.784,-19.91454 -14.375,-23.7386 -8.244,-2.65632 -18.792,-4.02441 -31.591,-4.02441 H 61.722 Z m 101.231,74.52973 c 0,-13.36655 -5.682,-22.60719 -17.023,-27.56592 -6.342,-2.81778 -15.29,-4.25793 -26.763,-4.3608 H 61.722 v 68.57536 h 56.556 c 11.619,0 20.612,-1.4627 27.102,-4.51375 11.704,-5.60847 17.573,-16.28463 17.573,-32.13489 z m 265.466,-41.86235 c 1.302,8.4192 1.891,20.63417 1.652,36.59912 H 290.493 c 0.77,18.52408 7.421,31.47872 20.035,38.89175 7.607,4.64833 16.83,6.91875 27.63,6.91875 11.388,0 20.67,-2.7688 27.815,-8.45854 3.893,-3.01559 7.327,-7.27367 10.296,-12.64483 h 51.16 c -1.34,10.94071 -7.5,22.03712 -18.57,33.31355 -17.151,17.92273 -41.205,26.91001 -72.097,26.91001 -25.52,0 -48.011,-7.57945 -67.533,-22.68377 C 249.772,309.35941 240,284.77865 240,250.67885 c 0,-31.97591 8.773,-56.45067 26.378,-73.48683 17.67,-17.06687 40.474,-25.56164 68.583,-25.56164 16.661,0 31.68,2.86338 45.079,8.61935 13.357,5.76266 24.396,14.83154 33.09,27.29478 7.868,10.97722 12.928,23.66823 15.289,38.12596 z m -50.357,4.80184 c -0.938,-12.80914 -5.386,-22.50395 -13.395,-29.12906 -7.943,-6.64426 -17.866,-9.97934 -29.706,-9.97934 -12.886,0 -22.836,3.56485 -29.906,10.57233 -7.118,6.99291 -11.547,16.50025 -13.362,28.53732 h 86.369 z"
   inkscape:connector-curvature="0"
   style="stroke-width:0.98055619" />
</g>
<g
   id="g5"
   transform="translate(0,-17.954009)">
</g>
<g
   id="g7"
   transform="translate(0,-17.954009)">
</g>
<g
   id="g9"
   transform="translate(0,-17.954009)">
</g>
<g
   id="g11"
   transform="translate(0,-17.954009)">
</g>
<g
   id="g13"
   transform="translate(0,-17.954009)">
</g>
<g
   id="g15"
   transform="translate(0,-17.954009)">
</g>
<g
   id="g17"
   transform="translate(0,-17.954009)">
</g>
<g
   id="g19"
   transform="translate(0,-17.954009)">
</g>
<g
   id="g21"
   transform="translate(0,-17.954009)">
</g>
<g
   id="g23"
   transform="translate(0,-17.954009)">
</g>
<g
   id="g25"
   transform="translate(0,-17.954009)">
</g>
<g
   id="g27"
   transform="translate(0,-17.954009)">
</g>
<g
   id="g29"
   transform="translate(0,-17.954009)">
</g>
<g
   id="g31"
   transform="translate(0,-17.954009)">
</g>
<g
   id="g33"
   transform="translate(0,-17.954009)">
</g>
</svg>